<svg width="100" height="100" viewBox="0 0 100 100" fill="none" xmlns="http://www.w3.org/2000/svg">
<rect width="100" height="100" rx="50" fill="white"/>
<path d="M57.5601 74.5C53.3531 74.5 50.0864 73.3078 47.7602 70.9233C45.4339 68.5388 44.2708 65.1855 44.2708 60.8636V41.3405H37.2178V33.7399H38.3314C40.2122 33.7399 41.6723 33.1935 42.7117 32.1006C43.7511 31.0077 44.2708 29.5174 44.2708 27.6297V24.5H52.6601V33.7399H61.7919V41.3405H52.6601V60.4911C52.6601 61.882 52.8829 63.0743 53.3283 64.0678C53.7738 65.0117 54.4914 65.7568 55.4813 66.3033C56.4712 66.8001 57.7581 67.0484 59.3419 67.0484C59.7379 67.0484 60.1833 67.0236 60.6783 66.9739C61.1732 66.9242 61.6434 66.8746 62.0889 66.8249V74.0529C61.396 74.1523 60.6288 74.2516 59.7874 74.351C58.946 74.4503 58.2035 74.5 57.5601 74.5Z" fill="black"/>
</svg>
